<?xml version="1.0" encoding="UTF-8"?>
<svg version="1.1" xmlns="http://www.w3.org/2000/svg" width="512" height="512">
<path d="M0 0 C168.96 0 337.92 0 512 0 C512 29.7 512 59.4 512 90 C502.1 90 492.2 90 482 90 C482 179.1 482 268.2 482 360 C491.9 360 501.8 360 512 360 C512 389.7 512 419.4 512 450 C343.04 450 174.08 450 0 450 C0 420.3 0 390.6 0 360 C9.9 360 19.8 360 30 360 C30 270.9 30 181.8 30 90 C20.1 90 10.2 90 0 90 C0 60.3 0 30.6 0 0 Z " fill="#FE641A" transform="translate(0,31)"/>
<path d="M0 0 C74.58 0 149.16 0 226 0 C226 89.1 226 178.2 226 270 C151.42 270 76.84 270 0 270 C0 244.59 0 219.18 0 193 C21.43216886 173.05814752 21.43216886 173.05814752 30.64453125 169.609375 C42.71664795 164.4691709 53.06272949 157.6477999 63.77423096 150.13235474 C68.18228067 147.05768144 72.65092192 144.07695522 77.12890625 141.10546875 C77.90086838 140.58539246 78.67283051 140.06531616 79.46818542 139.52947998 C80.52336113 138.82689056 80.52336113 138.82689056 81.59985352 138.11010742 C82.21184097 137.70016037 82.82382843 137.29021332 83.45436096 136.86784363 C85 136 85 136 87 136 C87 135.34 87 134.68 87 134 C86.3507959 133.78601563 85.7015918 133.57203125 85.03271484 133.3515625 C80.84826512 131.48671677 77.25014184 128.95648655 73.4765625 126.375 C72.63389328 125.80740967 71.79122406 125.23981934 70.92301941 124.6550293 C66.2018506 121.46832174 61.52357628 118.22905406 56.87768555 114.93359375 C46.66610362 107.75782714 36.87615481 101.20013074 24.97810364 97.14770508 C13.98221349 92.925747 9.41084864 85.95604926 0 77 C0 51.59 0 26.18 0 0 Z " fill="#EF3800" transform="translate(256,121)"/>
<path d="M0 0 C168.96 0 337.92 0 512 0 C512 29.7 512 59.4 512 90 C343.04 90 174.08 90 0 90 C0 60.3 0 30.6 0 0 Z " fill="#283366" transform="translate(0,391)"/>
<path d="M0 0 C168.96 0 337.92 0 512 0 C512 29.7 512 59.4 512 90 C343.04 90 174.08 90 0 90 C0 60.3 0 30.6 0 0 Z " fill="#283366" transform="translate(0,31)"/>
<path d="M0 0 C84.48 0 168.96 0 256 0 C256 29.7 256 59.4 256 90 C171.52 90 87.04 90 0 90 C0 60.3 0 30.6 0 0 Z " fill="#404A80" transform="translate(0,391)"/>
<path d="M0 0 C84.48 0 168.96 0 256 0 C256 29.7 256 59.4 256 90 C171.52 90 87.04 90 0 90 C0 60.3 0 30.6 0 0 Z " fill="#404A80" transform="translate(0,31)"/>
<path d="M0 0 C12.6434894 8.04585689 12.6434894 8.04585689 18.18359375 11.6953125 C19.14460495 12.32694054 19.14460495 12.32694054 20.12503052 12.97132874 C22.22975243 14.35502831 24.33366523 15.73995201 26.4375 17.125 C27.96408887 18.12934729 29.49070087 19.13365942 31.01733398 20.13793945 C34.2928656 22.29303523 37.56795589 24.44879979 40.84277344 26.60498047 C44.31156176 28.88879079 47.78098641 31.17162943 51.25097656 33.45361328 C62.260003 40.69381565 73.26220775 47.94424229 84.25634766 55.20703125 C88.18663912 57.80332945 92.11882604 60.39672552 96.05224609 62.98828125 C101.01128919 66.25631374 105.96543956 69.53164327 110.91622925 72.81216431 C112.79836105 74.05772341 114.68208021 75.30088735 116.56741333 76.54159546 C119.16906346 78.25436757 121.76487962 79.97563499 124.359375 81.69921875 C125.13830612 82.20924438 125.91723724 82.71927002 126.71977234 83.24475098 C128.51575908 84.44440759 130.26407384 85.71496898 132 87 C132 87.66 132 88.32 132 89 C130.61221313 90.15304565 130.61221313 90.15304565 128.62744141 91.44482422 C127.88039948 91.93602753 127.13335754 92.42723083 126.36367798 92.93331909 C125.53467987 93.46837067 124.70568176 94.00342224 123.8515625 94.5546875 C122.98977386 95.11898468 122.12798523 95.68328186 121.24008179 96.26467896 C119.36222291 97.49327578 117.48229223 98.71871023 115.60058594 99.94140625 C111.56756569 102.56214143 107.54436229 105.19776709 103.52069092 107.83282471 C101.43430378 109.19908671 99.34742306 110.56459527 97.2600708 111.92938232 C87.98674574 117.99578967 78.76224317 124.13341794 69.5512085 130.29385376 C53.57088267 140.98085675 37.54956182 151.6047791 21.5 162.1875 C20.52659668 162.82985596 19.55319336 163.47221191 18.55029297 164.1340332 C15.81561614 165.93828643 13.07989251 167.74093923 10.34375 169.54296875 C9.52507446 170.08318161 8.70639893 170.62339447 7.86291504 171.17997742 C7.11602417 171.67125626 6.3691333 172.1625351 5.59960938 172.66870117 C4.6238092 173.31146248 4.6238092 173.31146248 3.6282959 173.96720886 C2 175 2 175 0 176 C0 117.92 0 59.84 0 0 Z " fill="#F0F6FE" transform="translate(211,168)"/>
<path d="M0 0 C10.12311347 5.62395193 10.12311347 5.62395193 13.41357422 7.86474609 C14.16201096 8.3715239 14.91044769 8.8783017 15.68156433 9.4004364 C16.46469498 9.93602676 17.24782562 10.47161713 18.0546875 11.0234375 C18.90263382 11.59838455 19.75058014 12.1733316 20.6242218 12.76570129 C23.37663474 14.63231686 26.12580569 16.50364803 28.875 18.375 C32.7205631 20.98616955 36.56847411 23.59384902 40.41796875 26.19921875 C41.38485123 26.8536647 42.3517337 27.50811066 43.34791565 28.18238831 C49.7344974 32.49547002 56.15643384 36.7499425 62.61328125 40.95703125 C63.84413452 41.75977478 63.84413452 41.75977478 65.09985352 42.57873535 C68.97209171 45.10148624 72.85021737 47.6146171 76.73583984 50.11669922 C78.10917225 51.00860006 79.48238905 51.90067893 80.85546875 52.79296875 C81.48455643 53.19369095 82.1136441 53.59441315 82.76179504 54.00727844 C84.21006949 54.95251644 85.61126961 55.96927131 87 57 C87 57.66 87 58.32 87 59 C85.61221313 60.15304565 85.61221313 60.15304565 83.62744141 61.44482422 C82.880616 61.9358815 82.13379059 62.42693878 81.36433411 62.93287659 C80.12051216 63.73567299 80.12051216 63.73567299 78.8515625 64.5546875 C77.98782516 65.12029892 77.12408783 65.68591034 76.23417664 66.2686615 C73.36846368 68.14366231 70.49670475 70.00919177 67.625 71.875 C63.60880077 74.49843645 59.59560503 77.12645551 55.58203125 79.75390625 C54.5500914 80.42844345 53.51815155 81.10298065 52.4549408 81.79795837 C45.1985551 86.54520309 37.97086242 91.33368985 30.76171875 96.15234375 C29.79117554 96.80104431 28.82063232 97.44974487 27.82067871 98.11810303 C24.05159135 100.63887439 20.28361083 103.16128251 16.51763916 105.68670654 C13.92574613 107.42448798 11.33212794 109.15966788 8.73828125 110.89453125 C7.96433517 111.4149852 7.1903891 111.93543915 6.39299011 112.47166443 C1.11318489 116 1.11318489 116 0 116 C0 77.72 0 39.44 0 0 Z " fill="#DFE6F2" transform="translate(256,198)"/>
<path d="M0 0 C16.83 0 33.66 0 51 0 C51 9.9 51 19.8 51 30 C34.17 30 17.34 30 0 30 C0 20.1 0 10.2 0 0 Z " fill="#C7CFE1" transform="translate(431,421)"/>
<path d="M0 0 C16.83 0 33.66 0 51 0 C51 9.9 51 19.8 51 30 C34.17 30 17.34 30 0 30 C0 20.1 0 10.2 0 0 Z " fill="#DFE7F4" transform="translate(30,421)"/>
<path d="M0 0 C16.83 0 33.66 0 51 0 C51 9.9 51 19.8 51 30 C34.17 30 17.34 30 0 30 C0 20.1 0 10.2 0 0 Z " fill="#C7CFE1" transform="translate(431,61)"/>
<path d="M0 0 C16.83 0 33.66 0 51 0 C51 9.9 51 19.8 51 30 C34.17 30 17.34 30 0 30 C0 20.1 0 10.2 0 0 Z " fill="#DFE7F4" transform="translate(30,61)"/>
<path d="M0 0 C16.5 0 33 0 50 0 C50 9.9 50 19.8 50 30 C33.5 30 17 30 0 30 C0 20.1 0 10.2 0 0 Z " fill="#C7CFE1" transform="translate(351,421)"/>
<path d="M0 0 C16.5 0 33 0 50 0 C50 9.9 50 19.8 50 30 C33.5 30 17 30 0 30 C0 20.1 0 10.2 0 0 Z " fill="#C7CFE1" transform="translate(271,421)"/>
<path d="M0 0 C16.5 0 33 0 50 0 C50 9.9 50 19.8 50 30 C33.5 30 17 30 0 30 C0 20.1 0 10.2 0 0 Z " fill="#DFE7F4" transform="translate(191,421)"/>
<path d="M0 0 C16.5 0 33 0 50 0 C50 9.9 50 19.8 50 30 C33.5 30 17 30 0 30 C0 20.1 0 10.2 0 0 Z " fill="#DFE7F4" transform="translate(111,421)"/>
<path d="M0 0 C16.5 0 33 0 50 0 C50 9.9 50 19.8 50 30 C33.5 30 17 30 0 30 C0 20.1 0 10.2 0 0 Z " fill="#C7CFE1" transform="translate(351,61)"/>
<path d="M0 0 C16.5 0 33 0 50 0 C50 9.9 50 19.8 50 30 C33.5 30 17 30 0 30 C0 20.1 0 10.2 0 0 Z " fill="#C7CFE1" transform="translate(271,61)"/>
<path d="M0 0 C16.5 0 33 0 50 0 C50 9.9 50 19.8 50 30 C33.5 30 17 30 0 30 C0 20.1 0 10.2 0 0 Z " fill="#DFE7F4" transform="translate(191,61)"/>
<path d="M0 0 C16.5 0 33 0 50 0 C50 9.9 50 19.8 50 30 C33.5 30 17 30 0 30 C0 20.1 0 10.2 0 0 Z " fill="#DFE7F4" transform="translate(111,61)"/>
</svg>
